<?xml version="1.0" standalone="no"?>
<!DOCTYPE svg PUBLIC "-//W3C//DTD SVG 1.1//EN" "http://www.w3.org/Graphics/SVG/1.1/DTD/svg11.dtd" >
<svg xmlns="http://www.w3.org/2000/svg">
<metadata>Generated by IcoMoon</metadata>
<defs>
<font id="glyph" horiz-adv-x="1024">
<font-face units-per-em="1024" ascent="1024" descent="0" />
<missing-glyph horiz-adv-x="1024" />
<glyph unicode="&#x20;" horiz-adv-x="512" d="" />
<glyph unicode="&#x2a;" glyph-name="share-diaspora" d="M430.184 884.364l-0.77-271.366-258.368 83.126-50.598-155.718 257.828-84.578-158.866-220.002 132.49-96.192 160.096 219.076 160.096-219.076 132.49 96.192-158.866 220.002 257.828 84.578-50.596 155.718-258.366-83.126-0.77 271.366z" />
<glyph unicode="&#x3c;" glyph-name="go-previous" d="M665.274 884.364l-372.364-372.364 372.364-372.364 32.908 32.908-339.454 339.456 339.454 339.454-32.908 32.91z" />
<glyph unicode="&#x3d;" glyph-name="hamburger" d="M139.636 884.364h744.726v-93.092h-744.726v93.092zM139.636 232.726h93.090v-93.090h-93.092v93.088zM139.636 558.546h744.726v-93.088h-744.726v93.088zM791.274 232.726h93.092v-93.090h-93.092v93.088zM465.454 232.726h93.090v-93.090h-93.092v93.088z" />
<glyph unicode="&#x3e;" glyph-name="go-next" d="M358.726 884.364l-32.908-32.908 339.454-339.456-339.454-339.454 32.908-32.908 372.364 372.364-372.364 372.364z" />
<glyph unicode="&#x46;" glyph-name="share-facebook" d="M761.678 139.636h-162.356v350.498h-87.322v142.346h87.322v75.116c0 110.848 45.794 176.77 175.932 176.77h108.352v-135.894h-67.726c-50.668 0-54.004-18.99-54.004-54.44l-0.206-61.552h122.688l-14.356-142.346h-108.332z" />
<glyph unicode="&#x47;" glyph-name="share-gplus" d="M372.364 744.726c-128.532 0-232.728-104.198-232.728-232.726s104.196-232.726 232.728-232.726c128.532 0 232.728 104.198 232.728 232.726-0.008 15.634-1.592 31.226-4.726 46.546h-228v-93.090h131.456c-19.702-55.724-72.35-93.006-131.456-93.092-77.12 0-139.638 62.514-139.636 139.636s62.518 139.636 139.636 139.636c37.014 0 72.49-14.8 98.636-41.002l65.818 65.82c-43.6 43.66-102.752 68.216-164.456 68.274zM744.726 651.636v-93.090h-93.092v-93.090h93.092v-93.092h93.092v93.092h93.092v93.092h-93.092v93.092z" />
<glyph unicode="&#x48;" glyph-name="go-home" d="M512 884.364l-372.364-372.364 32.908-32.908 13.636 13.636v-353.092h651.636v353.092l13.636-13.636 32.908 32.908-139.636 139.636v139.636h-139.636l-93.092 93.092zM512 818.544l279.274-279.274v-353.092h-186.182v232.726h-186.182v-232.726h-186.182v353.092l279.274 279.274z" />
<glyph unicode="&#x49;" glyph-name="info" d="M465.454 744.726h93.090v-93.092h-93.092v93.092zM465.454 605.092h93.090v-325.818h-93.092v325.818zM512 884.364c-206.288 0-372.364-166.074-372.364-372.364s166.074-372.364 372.364-372.364c206.288 0 372.364 166.074 372.364 372.364s-166.074 372.364-372.364 372.364zM512 837.818c180.502 0 325.818-145.314 325.818-325.818s-145.316-325.818-325.818-325.818c-180.502 0-325.818 145.316-325.818 325.818s145.314 325.818 325.818 325.818z" />
<glyph unicode="&#x4a;" glyph-name="share-peertube" horiz-adv-x="745" d="M1.564 1008.173v-496.5l372.364 248.227zM1.564 511.673v-496.5l372.364 248.227zM373.928 759.946v-496.5l372.364 248.227z" />
<glyph unicode="&#x4b;" glyph-name="logo-kde" d="M543.856 884.364l-123.76-11.916v-509.928l122.54 18.414v217.456l164.652-241.152 129.174 40.894-168.712 231.944 170.068 218.676-131.884 30.33-163.298-218.676 1.216 223.958zM263.166 760.064c-1.4 0-2.74-0.698-3.79-1.77l-48.61-48.612c-2.044-2.048-2.454-5.236-0.948-7.716l56.87-93.702c-10.094-16.966-18.184-35.262-23.966-54.564l-104.396-21.802c-2.908-0.606-5.010-3.12-5.010-6.088v-68.79c0-2.886 1.938-5.414 4.74-6.092l101.418-24.776c5.408-22.356 13.838-43.622 24.914-63.102l-58.764-89.502c-1.64-2.514-1.304-5.744 0.812-7.852l48.61-48.606c2.044-2 5.226-2.466 7.718-0.932l92.074 55.924c18.068-10.432 37.494-18.674 58.088-24.24l21.394-103.178c0.604-2.932 3.264-5.008 6.228-5.008h68.784c2.89 0 5.404 2 6.092 4.874l25.184 103.312c21.23 5.73 41.34 14.284 59.85 25.186l90.72-59.442c2.494-1.63 5.738-1.302 7.852 0.792l48.61 48.612c2.054 2.048 2.456 5.246 0.948 7.716l-33.174 54.57-10.698-3.398c-1.562-0.512-3.28-0.004-4.198 1.35 0 0-21.082 30.924-48.338 70.818-32.586-63.778-98.924-107.376-175.484-107.376-108.77 0-196.878 88.1-196.878 196.878 0 80.022 47.66 148.852 116.176 179.678v50.776c-12.47-4.376-24.432-9.602-35.882-15.844-0.010 0.010-0.084-0.014-0.124 0l-92.752 60.932c-1.25 0.792-2.664 1.118-4.062 0.976z" />
<glyph unicode="&#x4d;" glyph-name="logo-plasmamobile" d="M232.728 884.364v-744.726h465.456v744.726h-465.454zM279.274 791.274h372.364v-558.544h-372.364v558.544zM405.636 651.636c-0.014 0-0.034 0-0.052 0-11.002 0-19.926-8.908-19.948-19.906 0-0.018 0-0.036 0-0.054 0-11.016 8.93-19.948 19.948-19.948 0.018 0 0.036 0 0.056 0 10.998 0.022 19.906 8.944 19.906 19.948 0 0.018 0 0.036 0 0.054-0.022 10.984-8.924 19.884-19.906 19.906zM505.364 651.636l-39.908-39.908 59.818-59.818-59.818-59.818 39.908-39.908 99.726 99.726-99.726 99.726zM355.726 551.908c-16.514-0.008-29.902-13.394-29.908-29.908 0.008-16.516 13.394-29.902 29.908-29.91 16.516 0.006 29.902 13.394 29.91 29.908-0.008 16.516-13.394 29.902-29.908 29.91zM415.546 432.182c-16.514-0.006-29.902-13.394-29.908-29.908 0.008-16.516 13.394-29.902 29.908-29.91 0.024 0 0.050 0 0.080 0 16.522 0 29.916 13.39 29.922 29.908-0.008 16.52-13.402 29.91-29.922 29.91-0.026 0-0.056 0-0.082 0z" />
<glyph unicode="&#x4e;" glyph-name="neon" d="M511.931 1024.001c-13.118 0-24.317-8.191-28.764-19.741l-0.067-0.224c-115.374-7.327-218.849-53.241-298.774-124.848l0.48 0.418c-3.551 1.568-7.71 2.495-12.094 2.495v0c-17.022 0-30.844-13.822-30.844-30.844v0c0-4.32 0.896-8.415 2.464-12.126l-0.064 0.194c-71.19-79.542-117.040-183.080-124.207-297.081l-0.064-1.408c-11.774-4.515-19.997-15.713-19.997-28.831v0c0-13.118 8.223-24.349 19.773-28.796l0.224-0.067c6.975-115.665 52.793-219.427 124.432-299.672l-0.416 0.48c-1.344-3.328-2.112-7.167-2.112-11.231v0c0-17.022 13.822-30.844 30.844-30.844v0c4.063 0 7.967 0.8 11.518 2.24l-0.192-0.067c79.701-71.415 183.528-117.424 297.881-124.463l1.408-0.067c4.639-11.518 15.71-19.517 28.668-19.517v0c13.118 0 24.317 8.191 28.764 19.741l0.067 0.221c115.665 6.975 219.459 52.825 299.672 124.464l-0.48-0.418c3.328-1.343 7.167-2.112 11.23-2.112v0c17.022 0 30.844 13.822 30.844 30.844v0c0 4.064-0.8 7.967-2.24 11.518l0.067-0.192c71.415 79.7 117.425 183.527 124.464 297.879l0.067 1.408c11.518 4.639 19.517 15.71 19.517 28.668v0c0 13.118-8.191 24.317-19.741 28.764l-0.221 0.067c-6.987 115.677-52.837 219.471-124.476 299.684l0.418-0.48c1.343 3.328 2.112 7.167 2.112 11.231v0c0 17.022-13.822 30.844-30.844 30.844v0c-4.064 0-7.967-0.8-11.519-2.24l0.192 0.066c-79.705 71.413-183.532 117.423-297.885 124.462l-1.408 0.064c-4.638 11.518-15.709 19.517-28.667 19.517v0zM484.159 979.815c5.087-10.431 15.614-17.502 27.772-17.534v0c12.030 0 22.461 6.911 27.516 16.958l0.096 0.192c109.298-6.655 207.429-49.785 283.451-117.264l-0.48 0.418c-1.376-3.36-2.143-7.231-2.143-11.326v0c0-17.022 13.822-30.844 30.844-30.844v0c4.031 0 7.839 0.8 11.359 2.208l-0.192-0.066c67.223-75.446 110.545-173.449 117.328-281.403l0.067-1.343c-10.431-5.087-17.502-15.614-17.534-27.772v0c0-12.030 6.911-22.461 16.958-27.516l0.192-0.096c-6.655-109.297-49.785-207.429-117.265-283.451l0.418 0.481c-3.36 1.376-7.231 2.143-11.327 2.143v0c-17.022 0-30.844-13.822-30.844-30.844v0c0-4.031 0.8-7.839 2.208-11.358l-0.067 0.192c-75.446-67.223-173.449-110.545-281.403-117.328l-1.343-0.067c-5.090 10.433-15.617 17.504-27.775 17.536v0c-12.030 0-22.461-6.911-27.516-16.958l-0.096-0.192c-109.297 6.655-207.428 49.785-283.45 117.264l0.48-0.418c1.376 3.36 2.144 7.231 2.144 11.326v0c0 17.022-13.822 30.844-30.844 30.844v0c-4.031 0-7.839-0.8-11.358-2.208l0.192 0.067c-67.127 75.51-110.289 173.641-116.913 281.627l-0.064 1.312c10.207 5.151 17.086 15.55 17.118 27.58v0c0 12.030-6.879 22.429-16.926 27.516l-0.192 0.096c6.88 109.3 50.202 207.335 117.841 283.229l-0.416-0.48c3.168-1.216 6.847-1.92 10.719-1.952v0c17.022 0 30.844 13.822 30.844 30.844v0c0 3.936-0.768 7.711-2.112 11.167l0.064-0.224c75.381 67.286 173.417 110.641 281.338 117.52l1.376 0.064zM511.931 875.956c-13.118 0-24.317-8.191-28.764-19.741l-0.067-0.224c-177.861-15.358-316.467-163.466-316.595-343.987v0c0.096-180.552 138.734-328.693 315.35-343.954l1.28-0.096c4.543-11.71 15.71-19.869 28.796-19.901v0c13.118 0 24.317 8.191 28.764 19.741l0.067 0.221c177.864 15.358 316.47 163.466 316.598 343.955v0c-0.096 180.552-138.735 328.693-315.351 343.955l-1.28 0.097c-4.546 11.713-15.712 19.871-28.799 19.903v0zM539.544 831.386c164.81-14.654 293.049-152.012 293.145-319.35v0c-0.096-167.338-128.367-304.728-291.961-319.286l-1.216-0.096c-5.151 10.205-15.55 17.084-27.58 17.116v0c-12.030 0-22.461-6.911-27.516-16.958l-0.096-0.192c-164.811 14.654-293.050 152.012-293.146 319.35v0c0.097 167.339 128.368 304.729 291.962 319.287l1.216 0.097c5.151-10.207 15.55-17.086 27.58-17.118v0c12.030 0 22.461 6.911 27.516 16.958l0.096 0.159zM635.307 512.004c0-68.119-55.225-123.376-123.376-123.376s-123.376 55.225-123.376 123.376c0 68.119 55.225 123.376 123.376 123.376s123.376-55.225 123.376-123.376z" />
<glyph unicode="&#x50;" glyph-name="logo-plasma" d="M618.39 352.404l-106.39 106.39 159.584 159.584-159.584 159.584 106.39 106.39 265.974-265.974zM458.806 219.432c0-44.068-35.724-79.792-79.792-79.792s-79.792 35.724-79.792 79.792c0 44.068 35.724 79.792 79.792 79.792s79.792-35.724 79.792-79.792zM299.222 538.586c0-44.068-35.724-79.792-79.792-79.792s-79.792 35.724-79.792 79.792c0 44.068 35.724 79.792 79.792 79.792s79.792-35.724 79.792-79.792zM405.61 831.158c0-29.38-23.816-53.196-53.194-53.196s-53.194 23.816-53.194 53.196c0 29.38 23.816 53.194 53.194 53.194s53.194-23.816 53.194-53.194z" />
<glyph unicode="&#x51;" glyph-name="search" d="M416 896c-159.552 0-288-128.448-288-288s128.448-288 288-288c159.552 0 288 128.448 288 288s-128.448 288-288 288zM416 832c124.096 0 224-99.904 224-224s-99.904-224-224-224c-124.096 0-224 99.904-224 224s99.904 224 224 224zM576.004 402.742l45.254 45.254 274.742-274.742-45.254-45.254-274.742 274.742z" />
<glyph unicode="&#x52;" glyph-name="share-reddit" d="M554.364 910.544l-63.274-213.456c-67.87-2.642-133.658-17.34-189.908-43.908-22.002 28.336-55.848 44.944-91.728 45-64.266 0-116.364-52.098-116.364-116.364 0.022-38.92 19.502-75.258 51.908-96.818-3.53-14.144-5.324-28.468-5.364-42.818 0-141.386 166.712-256 372.364-256s372.364 114.614 372.364 256c-0.134 14.326-2.022 28.616-5.636 42.726 32.538 21.514 52.13 57.904 52.182 96.908 0 64.264-52.098 116.364-116.364 116.364-36.004-0.014-69.976-16.702-92-45.182-54.71 25.912-118.508 40.53-184.456 43.818l47.908 161.456 149.092-24.364 7.636 45.908-188.364 30.726zM832 909.092c-38.56 0.004-69.818-31.254-69.818-69.818 0-38.558 31.26-69.818 69.818-69.818s69.818 31.26 69.818 69.818c0 38.564-31.26 69.824-69.818 69.818zM209.456 651.636c19.022-0.022 37.212-7.8 50.364-21.544-43.466-27.526-76.778-61.774-97.182-99.908-14.604 13.2-22.954 31.952-23 51.636 0 38.558 31.26 69.818 69.818 69.818zM814.274 651.636h0.274c38.56 0 69.818-31.26 69.818-69.818-0.016-19.762-8.408-38.59-23.092-51.818-20.294 38.218-53.548 72.562-97 100.182 13.080 13.616 31.118 21.358 50 21.456zM372.364 558.546c25.706 0 46.546-20.838 46.546-46.546s-20.838-46.544-46.546-46.544c-25.706 0-46.546 20.838-46.546 46.546s20.838 46.546 46.546 46.546zM651.636 558.546c25.706 0 46.544-20.838 46.544-46.546s-20.84-46.544-46.544-46.544c-25.706 0-46.544 20.838-46.544 46.546s20.84 46.546 46.544 46.546zM373.818 372.364c0 0 7.376-15.372 28.726-32.456 21.35-17.078 55.422-34.544 109.454-34.544s88.104 17.468 109.454 34.544c21.35 17.082 28.726 32.456 28.726 32.456l34.818-17.364c0 0-11.994-23.538-39.274-45.364-27.278-21.822-71.048-43.182-133.726-43.182s-106.45 21.36-133.726 43.182c-27.278 21.826-39.274 45.364-39.274 45.364l34.818 17.364z" />
<glyph unicode="&#x53;" glyph-name="settings" d="M535.274 884.364v0c64.266 0 116.364-52.098 116.364-116.364v0c0-64.266-52.098-116.364-116.364-116.364v0c-64.266 0-116.364 52.098-116.364 116.364v0c0 64.266 52.098 116.364 116.364 116.364zM256 372.364c-64.466 0-116.364-51.898-116.364-116.364s51.898-116.364 116.364-116.364c64.466 0 116.364 51.898 116.364 116.364s-51.898 116.364-116.364 116.364zM256 325.818c38.678 0 69.818-31.14 69.818-69.818s-31.14-69.818-69.818-69.818c-38.68 0-69.818 31.14-69.818 69.818s31.14 69.818 69.818 69.818zM139.636 791.274h744.726v-46.544h-744.726v46.544zM325.818 279.274h558.544v-46.544h-558.544v46.544z" />
<glyph unicode="&#x54;" glyph-name="share-twitter" d="M884.346 742.914c-27.396-12.148-56.846-20.358-87.748-24.050 31.54 18.904 55.768 48.84 67.176 84.512-29.524-17.508-62.222-30.218-97.024-37.066-27.866 29.688-67.574 48.236-111.518 48.236-84.378 0-152.788-68.394-152.788-152.758 0-11.972 1.35-23.63 3.952-34.81-126.978 6.37-239.56 67.188-314.914 159.606-13.154-22.558-20.688-48.802-20.688-76.798 0-53 26.974-99.758 67.972-127.152-25.046 0.778-48.606 7.668-69.204 19.106-0.014-0.652-0.014-1.252-0.014-1.904 0-74.014 52.668-135.75 122.558-149.79-12.818-3.496-26.314-5.356-40.252-5.356-9.844 0-19.416 0.972-28.746 2.742 19.444-60.688 75.868-104.856 142.726-106.082-52.29-40.976-118.168-65.396-189.752-65.396-12.332 0-24.496 0.726-36.446 2.136 67.614-43.342 147.924-68.638 234.208-68.638 281.028 0 434.708 232.77 434.708 434.642 0 6.62-0.186 13.208-0.418 19.76 29.856 21.538 55.756 48.444 76.238 79.078z" />
<glyph unicode="&#x56;" glyph-name="video" d="M93.090 791.274v-558.544h837.818v558.544zM139.636 744.726h744.726v-465.456h-744.726zM418.908 651.636v-279.272l186.182 139.636z" />
<glyph unicode="&#x57;" glyph-name="window-new" d="M139.636 884.364v-744.726h465.456v46.544h-418.908v512h651.636v-279.274h46.544v465.456h-744.726zM744.726 372.364v-93.092h-93.092v-46.544h93.092v-93.092h46.544v93.092h93.092v46.544h-93.092v93.092h-46.544z" />
<glyph unicode="&#x58;" glyph-name="close" d="M172.54 884.372l711.834-711.834-32.912-32.912-711.834 711.834 32.912 32.912zM172.54 139.626l711.834 711.834-32.912 32.912-711.834-711.834 32.912-32.912z" />
<glyph unicode="&#x59;" glyph-name="share-ycombinator" d="M465.454 465.456v-325.818h93.090v325.818l209.456 418.908h-116.364l-139.636-279.274-139.636 279.274h-116.364z" />
<glyph unicode="&#x5c;" glyph-name="cancel" d="M512 853.332c-86.51 0-165.176-32.286-225.332-85.332-5.386-4.75-10.924-9.592-16-14.666l-14.666-16c-53.048-60.158-85.332-138.822-85.332-225.334 0-188.514 152.82-341.334 341.334-341.334 86.51 0 165.176 32.286 225.332 85.332l16 14.668c5.076 5.076 9.918 10.614 14.668 16 53.048 60.158 85.332 138.822 85.332 225.332 0 188.514-152.82 341.332-341.334 341.332zM512 810.668c164.95 0 298.666-133.718 298.666-298.668 0-74.822-27.87-142.262-73.332-194.668l-420 420c52.404 45.462 119.844 73.332 194.668 73.332zM286.666 706.666l420-420c-52.404-45.462-119.844-73.332-194.668-73.332-164.95 0-298.666 133.718-298.666 298.666 0 74.822 27.872 142.262 73.334 194.666z" />
<glyph unicode="&#x5e;" glyph-name="go-up" d="M172.544 372.364l-32.908 32.908 372.364 372.364 372.364-372.364-32.908-32.908-339.456 339.456-339.454-339.456z" />
<glyph unicode="&#x61;" glyph-name="matrix-favicon" d="M26.978 1000.566v-977.132h70.302v-23.434h-97.28v1024h97.28v-23.434h-70.302zM327.483 690.806v-49.428h1.378c13.194 18.905 29.145 33.477 47.655 43.717 18.511 10.437 39.975 15.557 64 15.557 23.040 0 44.111-4.529 63.212-13.391s33.477-24.812 43.52-47.262c10.831 15.951 25.6 30.129 44.111 42.338s40.566 18.314 65.969 18.314c19.298 0 37.218-2.363 53.76-7.089s30.523-12.209 42.338-22.646c11.815-10.437 20.874-23.828 27.569-40.566 6.498-16.738 9.846-36.825 9.846-60.455v-244.382h-100.234v206.966c0 12.209-0.394 23.828-1.378 34.658s-3.545 20.283-7.68 28.16c-4.332 8.074-10.437 14.375-18.708 19.102s-19.495 7.089-33.477 7.089c-14.178 0-25.6-2.757-34.265-8.074-8.665-5.514-15.557-12.406-20.48-21.268-4.923-8.665-8.271-18.511-9.846-29.735-1.575-11.028-2.56-22.252-2.56-33.477v-203.422h-100.234v204.8c0 10.831-0.197 21.465-0.788 32.098-0.394 10.634-2.56 20.283-6.105 29.342-3.545 8.862-9.452 16.148-17.723 21.465s-20.283 8.074-36.431 8.074c-4.726 0-11.028-0.985-18.708-3.151s-15.36-6.105-22.646-12.012c-7.286-5.908-13.588-14.375-18.708-25.403s-7.68-25.6-7.68-43.52v-211.889h-100.234v365.489h94.523zM997.022 23.434v977.132h-70.302v23.434h97.28v-1024h-97.28v23.434h70.302z" />
<glyph unicode="&#x63;" glyph-name="check" d="M851.45 791.272l-485.878-491.82-193.024 195.384-32.914-33.316 226.030-228.794 32.914 33.316-0.094 0.092 485.878 491.82-32.914 33.316z" />
<glyph unicode="&#x6c;" glyph-name="link" d="M139.636 698.182c-25.788 0-46.546-20.76-46.546-46.546v-279.272c0-25.788 20.76-46.544 46.546-46.544h279.274c25.786 0 46.546 20.76 46.546 46.544v46.544h93.090v-46.544c0-25.786 20.76-46.544 46.544-46.544h279.274c25.788 0 46.544 20.76 46.544 46.544v279.274c0 25.786-20.76 46.544-46.544 46.544h-279.274c-25.788 0-46.544-20.76-46.544-46.544v-46.544h-93.092v46.544c0 25.786-20.76 46.544-46.546 46.544h-279.274zM139.636 651.636h279.274v-46.544c-25.786 0-46.546-20.76-46.546-46.546v-93.090c0-25.788 20.76-46.544 46.546-46.544v-46.544h-279.274v279.274zM605.092 651.636h279.274v-279.272h-279.274v46.544c25.788 0 46.544 20.76 46.544 46.544v93.092c0 25.786-20.76 46.544-46.544 46.544v46.546zM418.908 558.546h186.182v-93.090h-186.182v93.092z" />
<glyph unicode="&#x6d;" glyph-name="share-mastodon" horiz-adv-x="955" d="M934.834 410.122c-14.041-72.234-125.755-151.287-254.058-166.608-66.905-7.983-132.778-15.321-203.020-12.099-114.875 5.263-205.52 27.42-205.52 27.42 0-11.183 0.69-21.831 2.069-31.789 14.935-113.369 112.415-120.16 204.753-123.327 93.199-3.189 176.186 22.978 176.186 22.978l3.829-84.256s-65.189-35.005-181.317-41.444c-64.036-3.52-143.547 1.611-236.156 26.123-200.852 53.162-235.394 267.26-240.68 484.498-1.611 64.499-0.618 125.319-0.618 176.186 0 222.137 145.544 287.249 145.544 287.249 73.387 33.703 199.313 47.877 330.226 48.947h3.216c130.913-1.070 256.922-15.243 330.303-48.947 0 0 145.539-65.112 145.539-287.249 0 0 1.826-163.894-20.297-277.682zM783.459 670.572v-268.971h-106.561v261.065c0 55.032-23.155 82.965-69.47 82.965-51.209 0-76.874-33.135-76.874-98.655v-142.896h-105.932v142.896c0 65.52-25.671 98.655-76.88 98.655-46.315 0-69.47-27.933-69.47-82.965v-261.065h-106.561v268.971c0 54.971 13.997 98.655 42.111 130.974 28.992 32.319 66.96 48.886 114.092 48.886 54.53 0 95.825-20.959 123.129-62.883l26.542-44.495 26.548 44.495c27.298 41.924 68.593 62.883 123.129 62.883 47.126 0 85.094-16.568 114.092-48.886 28.109-32.319 42.106-76.002 42.106-130.974z" />
<glyph unicode="&#x73;" glyph-name="share" d="M744.726 884.364c-51.414 0-93.092-41.678-93.092-93.092 0 0 0 0 0 0 0-51.414 41.678-93.092 93.092-93.092s93.092 41.678 93.092 93.092c0 0 0 0 0 0 0 51.414-41.678 93.092-93.092 93.092zM535.274 698.182c-12.852 0-23.274-10.42-23.274-23.274s10.42-23.274 23.274-23.274c12.852 0 23.274 10.42 23.274 23.274s-10.42 23.274-23.274 23.274zM442.182 651.636c0 0 0 0 0 0-12.854 0-23.274-10.418-23.274-23.272 0 0 0 0 0 0s0 0 0 0c0-12.854 10.42-23.272 23.274-23.272 0 0 0 0 0 0s0 0 0 0c12.854 0 23.274 10.418 23.274 23.272 0 0 0 0 0 0s0 0 0 0c0 12.854-10.42 23.272-23.274 23.272 0 0 0 0 0 0zM279.274 605.092c0 0 0 0 0 0-51.414 0-93.092-41.678-93.092-93.092s41.678-93.092 93.092-93.092c0 0 0 0 0 0s0 0 0 0c51.414 0 93.092 41.678 93.092 93.092s-41.678 93.092-93.092 93.092c0 0 0 0 0 0zM442.182 418.908c-12.854 0-23.274-10.42-23.274-23.274 0 0 0 0 0 0 0-12.852 10.42-23.272 23.274-23.274s23.274 10.42 23.274 23.274c0 0 0 0 0 0 0 12.852-10.42 23.272-23.274 23.274zM535.274 372.364c-12.852 0-23.274-10.42-23.274-23.274s10.42-23.274 23.274-23.274c12.852 0 23.274 10.42 23.274 23.274s-10.42 23.274-23.274 23.274zM744.726 325.818c-51.414 0-93.092-41.678-93.092-93.092 0 0 0 0 0 0 0-51.414 41.678-93.092 93.092-93.092s93.092 41.678 93.092 93.092c0 0 0 0 0 0 0 51.414-41.678 93.092-93.092 93.092z" />
<glyph unicode="&#x76;" glyph-name="go-down" d="M172.544 698.182l-32.908-32.908 372.364-372.364 372.364 372.364-32.908 32.908-339.456-339.454-339.454 339.454z" />
<glyph unicode="&#x77;" glyph-name="new-window" d="M1024 1024v-896h-512v128h384v512h-640v-256h-128v512zM256 384v-128h128v-128h-128v-128h-128v128h-128v128h128v128z" />
<glyph unicode="&#x78;" glyph-name="clear" d="M384 896l-384-384 384-384h640v768h-640zM512.126 704l128.626-128.626 128.626 128.626 63.376-63.376-128.626-128.626 128.626-128.626-63.376-63.376-128.626 128.626-128.626-128.626-63.376 63.376 128.626 128.626-128.626 128.626 63.376 63.376z" />
<glyph unicode="&#x2197;" glyph-name="share-telegram" d="M759.044 764.306c-14.112-0.41-32.27-4.694-54.28-11.882-70.448-23.008-251.098-89.97-281.5-100.762s-178.442-60.538-209.128-75.39c-62.688-33.624-32.186-84.944 37.878-111.592 209.456-100.532 149.976-49.296 243.482-235.332 19.25-47.528 64.618-128.472 108.082-67.292 22.842 34.798 53.442 137.384 70.952 185.22 22.256 60.828 103.758 292.172 116.84 352.842 10.172 47.164-1.288 65.062-32.338 64.176z" />
<glyph unicode="&#xe901;" glyph-name="favorite" d="M512 853.332l-105.668-224.668-235.668-36 170.668-175-40.334-247 211 116.666 211-116.666-40.334 247 170.668 175-235.668 36-105.668 224.668z" />
<glyph unicode="&#xe908;" glyph-name="view-catalog" d="M139.636 884.364v-744.726h279.274v46.544h-232.728v651.636h465.454v-186.182h46.544v232.726h-558.544zM232.728 791.274v-186.182h186.182v186.182h-186.182zM465.454 791.274v-46.544h139.636v46.544h-139.636zM465.454 698.182v-46.546h139.636v46.546h-139.636zM465.454 605.092v-465.456h418.91v465.454h-418.908zM512 558.546h325.818v-186.182l-46.544 46.544-93.092-93.092-46.544 46.544-139.636-139.636v325.818zM232.728 512v-46.544h186.182v46.546h-186.182zM605.092 512c-25.786 0-46.544-20.76-46.544-46.544s20.76-46.544 46.544-46.544c25.786 0 46.544 20.76 46.544 46.544s-20.76 46.546-46.544 46.546zM232.728 418.908v-46.544h186.182v46.544h-186.182zM232.728 325.818v-46.544h186.182v46.544h-186.182z" />
<glyph unicode="&#xe909;" glyph-name="view-categories" d="M139.636 884.364v-139.636h46.544v93.090h651.636v-232.726h46.544v279.274h-744.726zM139.636 698.182v-558.544h279.274v46.544h-232.728v465.454h372.364v-46.544h46.544v93.092h-465.454zM232.728 558.546v-46.546h186.182v46.546h-186.182zM465.454 558.546v-418.91h418.91v418.908h-418.908zM512 512h325.818v-325.818h-325.818v325.818zM558.544 465.456v-93.092h232.726v93.092h-232.726zM232.728 418.908v-46.544h93.090v46.544h-93.092zM232.728 325.818v-46.544h186.182v46.544h-186.182zM651.636 325.818v-46.544h46.544v46.544h-46.544zM744.726 325.818v-46.544h46.544v46.544h-46.544z" />
<glyph unicode="&#xe90a;" glyph-name="view-fullscreen" d="M279.274 744.726v-465.456h465.456v465.454h-418.908zM325.818 605.092h372.364v-279.274h-372.364zM884.364 744.726l-139.636 139.636h139.636zM884.364 279.274l-139.636-139.636h139.636zM139.636 744.726l139.636 139.636h-139.636zM139.636 279.274l139.636-139.636h-139.636z" />
<glyph unicode="&#xe90b;" glyph-name="view-list-details" d="M139.636 884.364v-325.818h325.818v325.818h-325.818zM186.182 837.818h232.728v-232.726h-232.728v232.726zM139.636 139.638h325.818v325.818h-325.818v-325.818zM558.544 837.82h325.818v-46.544h-325.818v46.544zM558.544 418.91h186.182v-46.544h-186.182v46.544zM558.544 232.74h186.182v-46.544h-186.182v46.544zM558.544 651.65h325.818v-46.544h-325.818v46.544z" />
<glyph unicode="&#xe90c;" glyph-name="view-list-icons" d="M139.636 884.364v-325.818h325.818v325.818h-325.818zM186.182 837.818h232.728v-232.726h-232.728v232.726zM139.636 139.638h325.818v325.818h-325.818v-325.818zM558.548 884.366h325.818v-325.818h-325.818v325.818zM558.544 465.456v-325.818h325.818v325.818h-325.818zM605.092 418.908h232.726v-232.726h-232.726v232.726z" />
<glyph unicode="&#xe90d;" glyph-name="view-list-text" d="M139.636 884.364v-46.546h744.726v46.546zM139.636 791.274v-46.544h418.908v46.544zM139.636 605.092v-46.546h744.726v46.546zM139.636 512v-46.544h465.456v46.546zM139.636 325.818v-46.544h744.726v46.544zM139.636 232.726v-46.544h605.092v46.544zM791.274 186.182v-46.544h93.092v46.544z" />
<glyph unicode="&#xe90e;" glyph-name="view-list-tree" d="M139.636 884.364v-325.818h325.818v325.818h-325.818zM186.182 837.818h232.728v-232.726h-232.728v232.726zM418.908 558.548h46.546v-279.274h-46.546v279.274zM465.454 744.73h93.090v-46.546h-93.092v46.546zM465.454 325.808h93.090v-46.544h-93.092v46.544zM558.544 884.364v-325.818h325.818v325.818h-325.818zM605.092 837.818h232.726v-232.726h-232.726v232.726zM558.544 465.456v-325.818h325.818v325.818h-325.818z" />
<glyph unicode="&#xe90f;" glyph-name="view-media-playlist" d="M209.456 884.364c-38.558 0-69.818-31.26-69.818-69.818s31.26-69.818 69.818-69.818c38.558 0 69.818 31.26 69.818 69.818s-31.26 69.818-69.818 69.818zM325.818 837.818v-46.544h46.546v46.544h-46.546zM418.908 837.818v-46.544h465.456v46.544h-465.454zM418.908 744.726v-46.544h139.636v46.544h-139.636zM209.456 605.092c-38.56 0-69.818-31.26-69.818-69.818s31.26-69.818 69.818-69.818c38.56 0 69.818 31.26 69.818 69.818s-31.26 69.818-69.818 69.818zM325.818 558.546v-46.546h46.546v46.546h-46.546zM418.908 558.546v-46.546h465.456v46.546h-465.454zM418.908 465.456v-46.544h186.182v46.544h-186.182zM209.456 325.818c-38.56 0-69.818-31.26-69.818-69.818s31.26-69.818 69.818-69.818c38.56 0 69.818 31.26 69.818 69.818s-31.26 69.818-69.818 69.818zM325.818 279.274v-46.544h46.546v46.544h-46.546zM418.908 279.274v-46.544h465.456v46.544h-465.454zM418.908 186.182v-46.544h325.818v46.544h-325.818z" />
<glyph unicode="&#xeac9;" glyph-name="linkedin" d="M928 1024h-832c-52.8 0-96-43.2-96-96v-832c0-52.8 43.2-96 96-96h832c52.8 0 96 43.2 96 96v832c0 52.8-43.2 96-96 96zM384 192h-128v448h128v-448zM320 704c-35.4 0-64 28.6-64 64s28.6 64 64 64c35.4 0 64-28.6 64-64s-28.6-64-64-64zM832 192h-128v256c0 35.4-28.6 64-64 64s-64-28.6-64-64v-256h-128v448h128v-79.4c26.4 36.2 66.8 79.4 112 79.4 79.6 0 144-71.6 144-160v-288z" />
</font>
</defs>
</svg>
